<svg xmlns="http://www.w3.org/2000/svg" xmlns:xlink="http://www.w3.org/1999/xlink" viewBox="0 0 66 57.5" version="1.1" x="0px" y="0px">
<title>sorry, down, eyes, distress, sorrow</title><desc>Created with Sketch.</desc>
<g stroke="none" stroke-width="1" fill="none" fill-rule="evenodd">
<g transform="translate(-297.000000, -791.000000)" fill="#3969d6" fill-rule="nonzero">
<path d="M311.5,837 C304.511929,837 299,829.33123 299,820 C299,810.66877 304.511929,803 311.5,803 C318.488071,803 324,810.66877 324,820 C324,829.33123 318.488071,837 311.5,837 Z M304.871751,831.611597 C306.690915,833.732868 309.007061,835 311.5,835 C317.214478,835 322,828.341882 322,820 C322,816.635957 321.221741,813.545741 319.918148,811.055586 L301.393072,815.930606 C301.137269,817.222663 301,818.587183 301,820 C301,821.362539 301.127673,822.680157 301.366213,823.931177 C302.209003,821.636813 304.413352,820 307,820 C310.313708,820 313,822.686292 313,826 C313,829.313708 310.313708,832 307,832 C306.250551,832 305.533195,831.862593 304.871751,831.611597 L304.871751,831.611597 Z M301.970227,813.710631 L318.824251,809.275361 C316.919582,806.625056 314.323157,805 311.5,805 C307.328052,805 303.651235,808.548755 301.970227,813.710631 Z M307,830 C309.209139,830 311,828.209139 311,826 C311,823.790861 309.209139,822 307,822 C304.790861,822 303,823.790861 303,826 C303,828.209139 304.790861,830 307,830 Z M348.5,837 C341.511929,837 336,829.33123 336,820 C336,810.66877 341.511929,803 348.5,803 C355.488071,803 361,810.66877 361,820 C361,829.33123 355.488071,837 348.5,837 Z M341.871751,831.611597 C343.690915,833.732868 346.007061,835 348.5,835 C354.214478,835 359,828.341882 359,820 C359,818.587183 358.862731,817.222663 358.606928,815.930606 L340.081852,811.055586 C338.778259,813.545741 338,816.635957 338,820 C338,821.362539 338.127673,822.680157 338.366213,823.931177 C339.209003,821.636813 341.413352,820 344,820 C347.313708,820 350,822.686292 350,826 C350,829.313708 347.313708,832 344,832 C343.250551,832 342.533195,831.862593 341.871751,831.611597 L341.871751,831.611597 Z M341.175749,809.275361 L358.029773,813.710631 C356.348765,808.548755 352.671948,805 348.5,805 C345.676843,805 343.080418,806.625056 341.175749,809.275361 L341.175749,809.275361 Z M344,830 C346.209139,830 348,828.209139 348,826 C348,823.790861 346.209139,822 344,822 C341.790861,822 340,823.790861 340,826 C340,828.209139 341.790861,830 344,830 Z M361.341482,799.752577 C361.291308,799.708675 361.181055,799.616797 361.012744,799.483777 C360.724924,799.256307 360.383004,799.001268 359.989024,798.725482 C358.855886,797.932286 357.538304,797.137193 356.052773,796.394427 C351.808533,794.272307 347.08282,793 341.999986,793 C341.447702,793 340.999986,792.552285 340.999986,792 C340.999986,791.447715 341.447702,791 341.999986,791 C347.417153,791 352.441439,792.352693 356.9472,794.605573 C358.524168,795.394057 359.925336,796.239589 361.135949,797.087018 C361.869781,797.600701 362.382297,798.005754 362.658491,798.247423 C363.074128,798.611105 363.116245,799.242868 362.752563,799.658505 C362.388881,800.074141 361.757118,800.116259 361.341482,799.752577 Z M298.658505,799.752577 C298.242868,800.116259 297.611105,800.074141 297.247423,799.658505 C296.883741,799.242868 296.925859,798.611105 297.341495,798.247423 C297.617689,798.005754 298.130205,797.600701 298.864038,797.087018 C300.07465,796.239589 301.475818,795.394057 303.052786,794.605573 C307.558547,792.352693 312.582834,791 318,791 C318.552285,791 319,791.447715 319,792 C319,792.552285 318.552285,793 318,793 C312.917166,793 308.191453,794.272307 303.947214,796.394427 C302.461682,797.137193 301.1441,797.932286 300.010962,798.725482 C299.616982,799.001268 299.275062,799.256307 298.987242,799.483777 C298.818931,799.616797 298.708678,799.708675 298.658505,799.752577 Z"/>
</g></g>
<text x="0" y="61" fill="#3969d6" font-size="5px" font-weight="bold" font-family="'Helvetica Neue', Helvetica, Arial-Unicode, Arial, Sans-serif">Created by Andrejs Kirma</text>
<text x="0" y="66" fill="#3969d6" font-size="5px" font-weight="bold" font-family="'Helvetica Neue', Helvetica, Arial-Unicode, Arial, Sans-serif">from the Noun Project</text>
</svg>